<?xml version='1.0' encoding='utf-8'?>
<svg xmlns="http://www.w3.org/2000/svg" width="1000" height="1000" viewBox="100 17 800 800" role="img" aria-labelledby="icon-title icon-desc">
  <title id="icon-title">Patreon</title>
  <desc id="icon-desc">FrogPilot Discord role icon: a frog in a gold-banded black top hat, a gold monocle on a heart-charm chain, and a navy tuxedo with gold lapels and black bow tie.</desc>
  <defs>
    <clipPath id="head-clip">
      <path d="M 247 282 C 242 255 242 220 252 188 C 268 140 309 117 350 126 C 389 133 409 162 422 194 C 473 179 531 178 580 191 C 596 151 625 125 663 128 C 710 130 744 168 750 215 C 753 237 748 262 746 284 C 784 311 804 344 800 382 C 794 446 728 488 652 507 C 588 524 527 531 463 525 C 386 518 318 497 268 461 C 221 427 206 387 217 349 C 222 325 233 302 247 282 Z" />
    </clipPath>
    <radialGradient id="skin" cx="449" cy="279" r="470" gradientUnits="userSpaceOnUse">
      <stop offset="0" stop-color="#75c25a" />
      <stop offset=".42" stop-color="#66b84c" />
      <stop offset=".74" stop-color="#59a641" />
      <stop offset="1" stop-color="#43832e" />
    </radialGradient>
    <linearGradient id="pupil" x1="0" y1="0" x2=".8" y2="1">
      <stop offset="0" stop-color="#001222" />
      <stop offset=".57" stop-color="#001329" />
      <stop offset="1" stop-color="#000c1d" />
    </linearGradient>
    <linearGradient id="edge-shade" x1="0" y1="0" x2=".8" y2="1">
      <stop offset="0" stop-color="#5c9f3d" />
      <stop offset=".6" stop-color="#488436" />
      <stop offset="1" stop-color="#2e5b28" />
    </linearGradient>
    <linearGradient id="lower-face" x1="0" y1="398" x2="0" y2="510" gradientUnits="userSpaceOnUse">
      <stop offset="0" stop-color="#aacf80" stop-opacity="0" />
      <stop offset=".4" stop-color="#aacf80" stop-opacity=".65" />
      <stop offset=".7" stop-color="#a2ca73" stop-opacity="1" />
      <stop offset="1" stop-color="#8abb61" stop-opacity="1" />
    </linearGradient>
    <linearGradient id="eye-rim" x1="0" y1="0" x2=".85" y2="1">
      <stop offset="0" stop-color="#fff0a8" />
      <stop offset=".56" stop-color="#f9c24d" />
      <stop offset="1" stop-color="#ffcf62" />
    </linearGradient>
    <linearGradient id="eye-sclera" x1="0" y1="0" x2=".85" y2="1">
      <stop offset="0" stop-color="#dde2e4" />
      <stop offset=".4" stop-color="#fcfdfe" />
      <stop offset="1" stop-color="#f0f3f4" />
    </linearGradient>
    <radialGradient id="nose-dimple">
      <stop stop-color="#427b32" />
      <stop offset=".55" stop-color="#4b8936" />
      <stop offset=".85" stop-color="#5a9c40" />
      <stop offset="1" stop-color="#6bb24b" />
    </radialGradient>
    <radialGradient id="cheek-light">
      <stop stop-color="#a0cf6a" stop-opacity=".55" />
      <stop offset=".5" stop-color="#a0cf6a" stop-opacity=".25" />
      <stop offset="1" stop-color="#a0cf6a" stop-opacity="0" />
    </radialGradient>
    <linearGradient id="lip-shadow" x1="489" y1="442" x2="489" y2="458" gradientUnits="userSpaceOnUse">
      <stop stop-color="#729d47" stop-opacity=".1" />
      <stop offset=".5" stop-color="#729d47" stop-opacity=".38" />
      <stop offset="1" stop-color="#729d47" stop-opacity=".15" />
    </linearGradient>
    <clipPath id="body-clip">
      <path d="M 352 476 C 336 491 318 512 303 536 C 288 560 266 592 250 625 C 238 650 232 672 231 700 L 231 750 L 769 750 L 769 700 C 768 672 762 650 750 625 C 734 592 712 560 697 536 C 682 512 664 491 648 476 Z" />
    </clipPath>
    <linearGradient id="cloth" x1="250" y1="480" x2="760" y2="760" gradientUnits="userSpaceOnUse">
      <stop offset="0" stop-color="#36406e" />
      <stop offset=".45" stop-color="#1c2340" />
      <stop offset="1" stop-color="#121730" />
    </linearGradient>
    <linearGradient id="silk" x1="0" y1="0" x2=".8" y2="1">
      <stop offset="0" stop-color="#fff2a8" />
      <stop offset=".4" stop-color="#f7c948" />
      <stop offset="1" stop-color="#c88a12" />
    </linearGradient>
    <linearGradient id="silk-r" x1="0" y1="0" x2=".8" y2="1">
      <stop offset="0" stop-color="#f4cf5a" />
      <stop offset=".5" stop-color="#dba32a" />
      <stop offset="1" stop-color="#a86f0c" />
    </linearGradient>
    <linearGradient id="gold" x1="0" y1="0" x2=".7" y2="1">
      <stop offset="0" stop-color="#fff4b0" />
      <stop offset=".45" stop-color="#f8c63e" />
      <stop offset="1" stop-color="#c98a16" />
    </linearGradient>
    <linearGradient id="shirt" x1="0" y1="500" x2="0" y2="700" gradientUnits="userSpaceOnUse">
      <stop offset="0" stop-color="#ffffff" />
      <stop offset="1" stop-color="#dfe5ee" />
    </linearGradient>
    <linearGradient id="hat" x1="420" y1="0" x2="580" y2="0" gradientUnits="userSpaceOnUse">
      <stop offset="0" stop-color="#3a4462" />
      <stop offset=".3" stop-color="#20263a" />
      <stop offset=".75" stop-color="#151927" />
      <stop offset="1" stop-color="#0b0e17" />
    </linearGradient>
    <linearGradient id="hattop" x1="0" y1="0" x2="1" y2="0">
      <stop offset="0" stop-color="#4b5678" />
      <stop offset="1" stop-color="#262c42" />
    </linearGradient>
    <radialGradient id="glass" cx=".38" cy=".32" r=".75">
      <stop offset="0" stop-color="#ffffff" stop-opacity=".06" />
      <stop offset=".6" stop-color="#dff4ff" stop-opacity=".03" />
      <stop offset="1" stop-color="#bfe6ff" stop-opacity=".06" />
    </radialGradient>
    <clipPath id="lens-cut">
      <path clip-rule="evenodd" d="M 100 17 L 900 17 L 900 817 L 100 817 Z M 605 232 A 58 58 0 1 0 721 232 A 58 58 0 1 0 605 232 Z" />
    </clipPath>
  </defs>
  <g stroke="#061124" stroke-width="6" stroke-linecap="round" stroke-linejoin="round">
    <g id="body">
<g id="outfit-body" clip-path="url(#body-clip)">
<rect x="200" y="440" width="600" height="360" fill="url(#cloth)" stroke="none" />
<g stroke="none">
  <path d="M 312 536 C 297 560 275 592 259 625 C 247 650 241 672 240 700 L 240 900 L 251 900 L 251 700 C 252 672 258 650 270 625 C 286 592 304 560 312 536 Z" fill="#6f7fa8" opacity=".75" />
  <path d="M 697 536 C 724 560 746 592 762 625 C 774 650 780 672 781 700 L 781 900 L 754 900 L 754 700 C 753 672 747 650 735 625 C 719 592 697 560 697 536 Z" fill="#05070c" opacity=".55" />
  <path d="M 662 552 C 682 592 698 636 704 684 C 708 716 709 780 707 900 L 690 900 C 692 790 691 724 687 690 C 682 648 672 604 662 552 Z" fill="#05070c" opacity=".45" />
</g>
<path d="M 338 552 C 318 592 302 636 296 684 C 292 716 291 780 293 900" fill="none" stroke-width="4.75" />
<path d="M 338 552 C 318 592 302 636 296 684 C 292 716 291 780 293 900" fill="none" stroke-width="4.75" transform="matrix(-1 0 0 1 1000 0)" />
<path d="M 345 556 C 326 596 311 638 305 684 C 301 716 300 760 300 760" fill="none" stroke="#56628a" stroke-width="3" />
<path d="M 420 470 C 440 560 470 640 497 700 L 503 700 C 530 640 560 560 580 470 Z" fill="url(#shirt)" stroke="none" />
<path d="M 500 560 L 500 700" fill="none" stroke="#c4ccd8" stroke-width="3" />
<circle cx="500" cy="590" r="5" fill="#0d101a" stroke="none" />
<circle cx="500" cy="626" r="5" fill="#0d101a" stroke="none" />
<circle cx="500" cy="662" r="5" fill="#0d101a" stroke="none" />
<circle cx="498.5" cy="588.5" r="1.6" fill="#8d9ac0" stroke="none" />
<circle cx="498.5" cy="624.5" r="1.6" fill="#8d9ac0" stroke="none" />
<circle cx="498.5" cy="660.5" r="1.6" fill="#8d9ac0" stroke="none" />
<path d="M 500 548 C 484 532 464 527 456 533 C 451 546 452 562 458 571 C 468 575 486 566 500 556 Z" fill="#141826" stroke-width="4.75" />
<path d="M 500 548 C 516 532 536 527 544 533 C 549 546 548 562 542 571 C 532 575 514 566 500 556 Z" fill="#0e111c" stroke-width="4.75" />
<path d="M 460 538 C 468 535 478 539 488 546" fill="none" stroke="#5b6890" stroke-width="3.5" />
<path d="M 488 540 L 512 540 L 514 562 L 486 562 Z" fill="#1f2539" stroke-width="4.75" />
<path d="M 492 545 L 492 556" fill="none" stroke="#6a78a3" stroke-width="3" />
<path d="M 420 470 C 440 560 468 636 490 684 C 448 652 392 600 362 520 C 356 502 352 488 352 476 Z" fill="#05070c" opacity=".35" stroke="none" transform="translate(5 6)" />
<path d="M 420 470 C 440 560 468 636 490 684 C 448 652 392 600 362 520 C 356 502 352 488 352 476 Z" fill="#05070c" opacity=".35" stroke="none" transform="matrix(-1 0 0 1 1000 0) translate(-5 6)" />
<path d="M 420 470 C 440 560 470 640 497 700 C 450 664 392 600 362 520 C 356 502 352 488 352 476 Z" fill="url(#silk)" stroke-width="4.75" />
<path d="M 372 500 C 384 560 414 614 458 656" fill="none" stroke="#fff7cc" stroke-width="4.5" opacity=".9" />
<path d="M 420 470 C 440 560 470 640 497 700 C 450 664 392 600 362 520 C 356 502 352 488 352 476 Z" fill="url(#silk-r)" stroke-width="4.75" transform="matrix(-1 0 0 1 1000 0)" />
<path d="M 628 500 C 618 556 594 606 556 646" fill="none" stroke="#ffe48a" stroke-width="3.5" opacity=".75" />
<path d="M 500 700 L 500 760" fill="none" stroke-width="4.75" />
<circle cx="500" cy="722" r="9" fill="#0d101a" stroke-width="4" />
<circle cx="497" cy="719" r="2.5" fill="#7d8bb4" stroke="none" />
<g transform="translate(640 626) scale(1.45)">
  <path d="M 0 8 C -6 2 -20 -4 -20 -14 C -20 -24 -8 -28 0 -18 C 8 -28 20 -24 20 -14 C 20 -4 6 2 0 8 Z" fill="#05070c" opacity=".4" stroke="none" transform="translate(3 5)" />
  <path d="M 0 8 C -6 2 -20 -4 -20 -14 C -20 -24 -8 -28 0 -18 C 8 -28 20 -24 20 -14 C 20 -4 6 2 0 8 Z" fill="url(#gold)" stroke-width="3.6" />
  <path d="M -12 -20 C -16 -16 -15 -10 -12 -7" fill="none" stroke="#fffbe0" stroke-width="3.5" />
</g>
</g>
      <path d="M 352 476 C 336 491 318 512 303 536 C 288 560 266 592 250 625 C 238 650 232 672 231 700 L 231 750 L 769 750 L 769 700 C 768 672 762 650 750 625 C 734 592 712 560 697 536 C 682 512 664 491 648 476 Z" fill="none" />
    </g>
    <g id="head">
      <path d="M 247 282 C 242 255 242 220 252 188 C 268 140 309 117 350 126 C 389 133 409 162 422 194 C 473 179 531 178 580 191 C 596 151 625 125 663 128 C 710 130 744 168 750 215 C 753 237 748 262 746 284 C 784 311 804 344 800 382 C 794 446 728 488 652 507 C 588 524 527 531 463 525 C 386 518 318 497 268 461 C 221 427 206 387 217 349 C 222 325 233 302 247 282 Z" fill="url(#skin)" />
      <g clip-path="url(#head-clip)" stroke="none">
        <path d="M 208 352 C 222 410 272 453 341 479 C 465 526 653 507 737 451 C 778 423.67 796 398 806 352 C 813 418 787 466 727 496 C 637 545 458 562 328 515 C 245 485 195 433 196 386 Z" fill="#488436" opacity=".45" />
        <path d="M 263 227 C 265 177 302 139 343 146 C 373 149 394 169 405 193 C 384 172 364 164 342 163 C 311 159 284 186 263 227 Z" fill="#afd86f" />
        <path d="M 595 191 C 610 155 637 141 665 145 C 693 149 722 173 731 204 C 706 173 682 161 655 164 C 632 166.56 612 178 595 191 Z" fill="#9bce67" />
        <path d="M 731 193 C 749 223 744 254 739 282 C 745 301 766 312 775 329 C 751 309 729 312 716 322 C 733 298 737 270 736 245 C 736 226 734 209 731 193 Z" fill="#4b8b32" stroke="none" opacity=".65" />
        <path d="M 255 183 C 239 220 245 260 250 281 C 234 308 225 329 224 353 C 233 328 247 315 260 300 C 266 292 265 283 262 270 C 254 239 253 211 256 180 Z" fill="#4f9637" stroke="none" opacity=".5" />
        <path d="M 256 300 C 234 323 226 350 232 371 C 235 345 248 328 263 316 C 273 308 269 293 256 300 Z" fill="#acd775" opacity=".75" />
        <path d="M 741 336 C 767 341 785 359 788 376 C 791.5 395.8 777 422 758 437 C 782 398 774 373 762 358 C 755 349.25 748 340 741 336 Z" fill="#438230" stroke="none" opacity=".5" />
        <path d="M 806 352 C 796 398 778 423.67 737 451 C 653 507 465 526 341 479 C 326.81 473.65 313.43 467.59 301 460.83 C 325 508 399 531 463 537 C 536 544 620 530 686 507 C 752 486 798 450 808 407 Z" fill="url(#edge-shade)" stroke="none" opacity=".72" />
        <path d="M 287 381 C 327 356 356 369 393 390 C 424 408 461 419 498 419 C 542 419 580 406 613 389 C 650 368 683 360 717 388 C 743 411 726 446 692 467 C 651 493 575 514 498 514 C 421 514 348 494 306 468 C 268 444 261 405 287 381 Z" fill="url(#lower-face)" />
        <ellipse cx="344" cy="352" rx="43" ry="27" fill="url(#cheek-light)" opacity=".8" />
        <ellipse cx="657" cy="354" rx="40" ry="27" fill="url(#cheek-light)" opacity=".65" />
        <path d="M 452 444 C 480 450 519 450 548 443 C 522 456 479 457 452 444 Z" fill="url(#lip-shadow)" />
      </g>
      <g id="eyes">
        <g id="left-eye">
          <clipPath id="left-eye-aperture">
            <path d="M 282 237 C 279 197 301 166 333 165 C 366 164 390 194 392 234 C 394 258 382 276 365 283 C 355 287 320 281 299 288 C 296 289 294 288 292 285 C 285 272 282 255 282 237 Z" />
          </clipPath>
          <path d="M 282 237 C 279 197 301 166 333 165 C 366 164 390 194 392 234 C 394 258 382 276 365 283 C 355 287 320 281 299 288 C 296 289 294 288 292 285 C 285 272 282 255 282 237 Z" fill="url(#eye-sclera)" stroke="none" />
          <g clip-path="url(#left-eye-aperture)" stroke="none">
            <path d="M 298 237 A 39 57 0 1 0 376 237 A 39 57 0 1 0 298 237 Z" fill="url(#eye-rim)" />
            <path d="M 304 236 A 33 50 0 1 0 370 236 A 33 50 0 1 0 304 236 Z" fill="url(#pupil)" />
            <ellipse cx="326" cy="217" rx="8" ry="12" fill="#fcfdfe" />
            <ellipse cx="353" cy="253" rx="3.6" ry="4.5" fill="#fcfdfe" />
          </g>
          <path d="M 282 237 C 279 197 301 166 333 165 C 366 164 390 194 392 234 C 394 258 382 276 365 283 C 355 287 320 281 299 288 C 296 289 294 288 292 285 C 285 272 282 255 282 237 Z" fill="none" stroke-width="4.75" />
        </g>
        <g id="right-eye">
          <clipPath id="right-eye-aperture">
            <path d="M 607 235 C 607 197 630 167 663 168 C 696 169 717 198 718 236 C 719 259 708 277 694 285 C 690 288 686 288 682 287 C 663 283 645 284 627 289 C 624 290 622 289 620 286 C 611 272 607 253 607 235 Z" />
            <circle cx="663" cy="232" r="60" />
          </clipPath>
          <path d="M 607 235 C 607 197 630 167 663 168 C 696 169 717 198 718 236 C 719 259 708 277 694 285 C 690 288 686 288 682 287 C 663 283 645 284 627 289 C 624 290 622 289 620 286 C 611 272 607 253 607 235 Z" fill="url(#eye-sclera)" stroke="none" />
          <circle cx="663" cy="232" r="60" fill="url(#eye-sclera)" stroke="none" />
          <g clip-path="url(#right-eye-aperture)" stroke="none">
            <path d="M 624 239 A 39 57 0 1 0 702 239 A 39 57 0 1 0 624 239 Z" fill="url(#eye-rim)" />
            <path d="M 630 238 A 33 50 0 1 0 696 238 A 33 50 0 1 0 630 238 Z" fill="url(#pupil)" />
            <ellipse cx="652" cy="219" rx="8" ry="12" fill="#fcfdfe" />
            <ellipse cx="679" cy="255" rx="3.6" ry="4.5" fill="#fcfdfe" />
          </g>
        </g>
      </g>
      <g id="expression" fill="none">
        <g id="nose" fill="url(#nose-dimple)" stroke="none">
          <path d="M 445.45 316 A 8.55 6.75 0 1 0 462.55 316 A 8.55 6.75 0 1 0 445.45 316 Z" />
          <path d="M 532.45 316 A 8.55 6.75 0 1 0 549.55 316 A 8.55 6.75 0 1 0 532.45 316 Z" />
        </g>
        <path id="profile-smile" d="M 335 390 C 375 419 413 417 453 407 C 482 400 514 399 545 407 C 586 417 628 416 665 387" fill="none" stroke="#061124" stroke-width="8" stroke-linecap="round" />
      </g>
<g clip-path="url(#lens-cut)">
<g clip-path="url(#head-clip)" stroke="none">
  <path d="M 392 222 C 440 240 560 236 612 206 C 610 228 560 250 500 250 C 452 250 404 240 392 222 Z" fill="#1f4a1a" opacity=".3" />
  <path d="M 604 280 C 620 304 650 312 690 302 C 712 296 726 282 730 262 C 726 292 702 314 668 318 C 640 320 616 304 604 280 Z" fill="#1f4a1a" opacity=".22" />
</g>
</g>
      <path d="M 247 282 C 242 255 242 220 252 188 C 268 140 309 117 350 126 C 389 133 409 162 422 194 C 473 179 531 178 580 191 C 596 151 625 125 663 128 C 710 130 744 168 750 215 C 753 237 748 262 746 284 C 784 311 804 344 800 382 C 794 446 728 488 652 507 C 588 524 527 531 463 525 C 386 518 318 497 268 461 C 221 427 206 387 217 349 C 222 325 233 302 247 282 Z" fill="none" />
    </g>
<g clip-path="url(#lens-cut)">
<g transform="rotate(-6 500 196)">
  <path d="M 376 188 C 388 174 430 168 500 168 C 570 168 612 174 624 188 C 634 202 620 226 588 232 C 550 240 450 240 412 232 C 380 226 366 202 376 188 Z" fill="#161b2a" stroke-width="6" />
  <path d="M 388 190 C 402 180 440 178 470 178" fill="none" stroke="#56638c" stroke-width="3.5" />
  <path d="M 428 198 C 424 150 418 96 413 56 L 587 56 C 582 96 576 150 572 198 C 530 208 470 208 428 198 Z" fill="url(#hat)" stroke-width="6" />
  <path d="M 425 158 C 470 167 530 167 575 158 L 572 198 C 530 208 470 208 428 198 Z" fill="url(#gold)" stroke-width="5" />
  <path d="M 434 172 C 470 179 500 180 524 179" fill="none" stroke="#fff6c8" stroke-width="4" />
  <path d="M 436 66 C 439 96 442 122 445 150" fill="none" stroke="#9aaad4" stroke-width="8" opacity=".85" />
  <path d="M 456 70 C 457 90 458 108 459 128" fill="none" stroke="#6b7aa6" stroke-width="4" opacity=".7" />
  <ellipse cx="500" cy="56" rx="87" ry="16" fill="url(#hattop)" stroke-width="6" />
  <path d="M 438 51 C 456 47 477 46 500 46" fill="none" stroke="#9aaad4" stroke-width="3.5" opacity=".8" />
  <path d="M 386 206 C 398 222 440 228 470 229" fill="none" stroke="#6c7ba6" stroke-width="3.5" />
</g>
</g>

<path d="M 722.8 259.9 C 750 322 764 410 730 454 C 710 480 688 500 672 512 C 656 524 646 566 642 602" fill="none" stroke-width="10" />
<path d="M 722.8 259.9 C 750 322 764 410 730 454 C 710 480 688 500 672 512 C 656 524 646 566 642 602" fill="none" stroke="#f8c63e" stroke-width="5" />
<path d="M 722.8 259.9 C 750 322 764 410 730 454 C 710 480 688 500 672 512 C 656 524 646 566 642 602" fill="none" stroke="#9c650a" stroke-width="5" stroke-dasharray="2 6" stroke-linecap="butt" />
<circle cx="663" cy="232" r="66" fill="url(#glass)" stroke="none" />
<circle cx="663" cy="232" r="66" fill="none" stroke-width="17" />
<circle cx="663" cy="232" r="66" fill="none" stroke="url(#gold)" stroke-width="9" />
<path d="M 605.3 200 A 66 66 0 0 1 648.2 167.7" fill="none" stroke="#fff8d0" stroke-width="3" />
<circle cx="722.8" cy="259.9" r="8" fill="url(#gold)" stroke-width="4" />
  </g>
</svg>
