<svg xmlns="http://www.w3.org/2000/svg" width="1000" height="1000" viewBox="0 0 1000 1000" role="img" aria-labelledby="icon-title icon-desc">
<title id="icon-title">Jeep</title>
<desc id="icon-desc">FrogPilot car icon: the Jeep wordmark, the brand's long-standing logo.</desc>
<defs>
<mask id="wordmark" maskUnits="userSpaceOnUse" x="0" y="0" width="1000" height="1000">
<g transform="matrix(7.3265220236376924 0 0 7.3265220236376924 -3861.2850678688064 -2584.0533644236184)">
<path fill="#FFFFFF" transform="matrix(1,0,0,-1,555.0089,396.3461)" d="M0 0H9.987V-26.266C9.987-30.787 8.054-40.26-5.799-40.26-19.653-40.26-21.156-31.433-21.156-26.482V-21.637H-11.491V-26.374C-11.491-29.28-9.558-31.971-5.907-31.971-2.255-31.971 0-29.926 0-26.482Z"/>
<path fill="#FFFFFF" transform="matrix(1,0,0,-1,586.0443,418.62953)" d="M0 0C0 2.691-1.502 5.275-4.94 5.275-8.269 5.275-9.45 2.907-9.45 0ZM-5.584 11.303C2.256 11.303 9.128 8.289 9.128-5.598H-9.45C-9.45-10.011-7.625-11.841-4.403-11.841-1.181-11.841-.107-9.258-.107-9.258H9.021C9.021-13.241 3.544-18.623-4.725-18.516-14.176-18.516-18.793-11.518-18.793-4.306-18.793 2.907-14.712 11.303-5.584 11.303"/>
<path fill="#FFFFFF" transform="matrix(1,0,0,-1,615.8989,418.62953)" d="M0 0C0 2.691-1.502 5.275-4.94 5.275-8.269 5.275-9.451 2.907-9.451 0ZM-5.584 11.303C2.256 11.303 9.128 8.289 9.128-5.598H-9.451C-9.451-10.011-7.625-11.841-4.404-11.841-1.181-11.841-.107-9.258-.107-9.258H9.021C9.021-13.241 3.544-18.623-4.725-18.516-14.175-18.516-18.793-11.518-18.793-4.306-18.793 2.907-14.713 11.303-5.584 11.303"/>
<path fill="#FFFFFF" transform="matrix(1,0,0,-1,636.5043,422.6123)" d="M0 0C-.107-5.49 1.075-8.396 5.585-8.396 10.095-8.396 10.739-3.445 10.739 .322 10.739 4.09 9.881 7.751 5.155 7.751 2.256 7.751 .108 5.49 0 0M-9.128-22.929V14.209H.108V9.977C.441 10.693 .677 11.187 1.396 12.056 2.021 12.81 3.759 14.963 8.378 14.963 12.995 14.963 20.19 11.733 20.19 .322 20.19-8.505 15.894-14.963 8.484-14.963 4.404-14.963 2.575-13.539 1.505-12.703 .822-12.169 .603-11.924 .215-11.41V-22.929Z"/>
</g>
</mask>
</defs>
<rect fill="#FFFFFF" mask="url(#wordmark)" x="0" y="0" width="1000" height="1000"/>
</svg>
