<svg xmlns="http://www.w3.org/2000/svg" width="1000" height="1000" viewBox="0 0 1000 1000" role="img" aria-labelledby="icon-title icon-desc">
<title id="icon-title">Kia</title>
<desc id="icon-desc">FrogPilot car icon: the Kia signature logo, introduced in 2021.</desc>
<path fill="#05141F" fill-rule="evenodd" transform="matrix(1.554135727854 0 0 1.554135727854 -43.403557243999 300.915213261958)" d="M396.1,180.8c0,1.1,0.3,1.7,1,1.7c0.5,0,0.9-0.2,1.4-0.5L578.9,64.7c3.2-2.1,6.1-3.2,10.4-3.2H629 c6.1,0,10.2,4.1,10.2,10.2v75.7c0,9.1-2,14.4-10.2,19.3l-48.1,28.9c-0.6,0.4-1.2,0.6-1.6,0.6c-0.6,0-1.1-0.4-1.1-2.1l0-88.4 c0-1-0.3-1.7-1-1.7c-0.5,0-0.9,0.2-1.4,0.5l-131.9,85.7c-3.7,2.4-6.7,3.1-10.1,3.1h-87.5c-6.1,0-10.2-4.1-10.2-10.2V74.1 c0-0.8-0.4-1.5-1-1.5c-0.5,0-0.9,0.2-1.4,0.5l-87,52.3c-0.9,0.5-1.1,1-1.1,1.4c0,0.4,0.1,0.7,0.8,1.3l62.1,62.1 c0.8,0.8,1.4,1.5,1.4,2.1c0,0.7-0.9,1.1-2,1.1h-56.2c-4.4,0-7.8-0.7-10.2-3.1l-37.7-37.7c-0.4-0.4-0.7-0.6-1.1-0.6 c-0.3,0-0.8,0.2-1.2,0.4l-63,37.9c-3.8,2.3-6.4,3-10.2,3h-58c-6.1,0-10.2-4.1-10.2-10.2v-74.3c0-9.2,2-14.4,10.2-19.3l48.4-29.1 c0.5-0.3,0.9-0.4,1.3-0.4c0.7,0,1.1,0.8,1.1,2.4v99.4c0,1,0.3,1.5,1,1.5c0.4,0,0.9-0.3,1.4-0.6l163.5-98.3c3.9-2.3,6.3-3,10.8-3h88 c6.1,0,10.2,4.1,10.2,10.2L396.1,180.8L396.1,180.8z"/>
</svg>
