<svg xmlns="http://www.w3.org/2000/svg" width="1000" height="1000" viewBox="0 0 1000 1000" role="img" aria-labelledby="icon-title icon-desc">
  <title id="icon-title">No Car</title>
  <desc id="icon-desc">FrogPilot icon: a red prohibition circle and slash over a dark front-view car.</desc>
  <g transform="matrix(0.9 0 0 0.9 50 50)">
  <circle cx="500" cy="500" r="439.5" fill="#FFFFFF"/>
  <g transform="matrix(0.94 0 0 0.94 30 30)">
  <path fill="#1A1A1A" d="M500 264.8L617.2 264.8C648.4 264.8 667.9 271.9 677.7 289.1L726.6 375C732.4 373 736.2 358.7 753.9 357.4C779.3 355.5 796.9 365.2 796.9 380.9C796.9 396.5 779.3 403.1 757.8 401.6C777.3 425.8 796.9 449.2 806.6 470.7C814.8 488.3 816.4 503.9 816.4 523.4L816.4 710.9C816.4 725 807 734.4 793 734.4L701.2 734.4C687.1 734.4 677.7 725 677.7 710.9L677.7 696.5L500 696.5L322.3 696.5L322.3 710.9C322.3 725 312.9 734.4 298.8 734.4L207 734.4C193 734.4 183.6 725 183.6 710.9L183.6 523.4C183.6 503.9 185.2 488.3 193.4 470.7C203.1 449.2 222.7 425.8 242.2 401.6C220.7 403.1 203.1 396.5 203.1 380.9C203.1 365.2 220.7 355.5 246.1 357.4C263.8 358.7 267.6 373 273.4 375L322.3 289.1C332.1 271.9 351.6 264.8 382.8 264.8L500 264.8Z"/>
  <path fill="#FFFFFF" d="M500 287.1L636.7 287.1C650.4 287.1 657.7 293.3 664.1 302.7L712.9 375C717.5 381.8 714.1 388.7 705.5 388.7C636.7 386.7 566.4 385.5 500 385.5C433.6 385.5 363.3 386.7 306 388.3L296.4 361.3L335.9 302.7C342.3 293.3 349.6 287.1 363.3 287.1L500 287.1ZM686.3 518.8C685.2 512.9 688.2 508.7 693.8 507L783.6 480.5C791.3 478.2 795.7 485.1 793 493.4C789.8 503.1 785.7 516.1 777.3 524.2C761.7 539.1 738.3 551.6 720.7 558.6C714.2 561.2 707 559.8 703.1 554.7L689.8 536.7C686.4 532.1 687.7 526.5 686.3 518.8ZM313.7 518.8C314.8 512.9 311.8 508.7 306.2 507L216.4 480.5C208.7 478.2 204.3 485.1 207 493.4C210.2 503.1 214.3 516.1 222.7 524.2C238.3 539.1 261.7 551.6 279.3 558.6C285.8 561.2 293 559.8 296.9 554.7L310.2 536.7C313.6 532.1 312.3 526.5 313.7 518.8ZM696.1 623.4C710.9 611.7 728.5 603.9 748 603.1C765.6 602.3 776.6 613.3 775.8 627.3C775 643 764.1 653.1 746.9 653.1C728.5 653.1 709 643.8 697.3 632C694.5 629.3 693.7 625.3 696.1 623.4ZM303.9 623.4C289.1 611.7 271.5 603.9 252 603.1C234.4 602.3 223.4 613.3 224.2 627.3C225 643 235.9 653.1 253.1 653.1C271.5 653.1 291 643.8 302.7 632C305.5 629.3 306.3 625.3 303.9 623.4ZM500 518.8L621.1 518.8C650.4 519.5 669.9 539.1 669.9 560.5C669.9 580.1 656.2 591.8 632.8 592.6C589.8 593.8 543 594.1 500 594.1C457 594.1 410.2 593.8 367.2 592.6C343.8 591.8 330.1 580.1 330.1 560.5C330.1 539.1 349.6 519.5 378.9 518.8L500 518.8ZM500 632.8L593.8 632.8C628.9 633.2 656.2 637.5 677.7 649.6C683.6 653.1 682 655.5 675.8 655.5L500 655.5L324.2 655.5C318 655.5 316.4 653.1 322.3 649.6C343.8 637.5 371.1 633.2 406.2 632.8L500 632.8Z"/>
  </g>
  <g fill="none" stroke="#F12C35" stroke-width="117.2">
    <circle cx="500" cy="500" r="439.5"/>
    <path d="M189.3 189.3L810.7 810.7"/>
  </g>
  </g>
</svg>
