<svg xmlns="http://www.w3.org/2000/svg" width="1000" height="1000" viewBox="0 0 1000 1000" role="img" aria-labelledby="icon-title icon-desc">
<title id="icon-title">Peugeot</title>
<desc id="icon-desc">FrogPilot car icon: the Peugeot shield with lion head and PEUGEOT lettering, introduced in 2021.</desc>
<g transform="matrix(0.9619321227367412 0 0 0.9619321227367412 18.86122198117033 19.701812186411075)">
<path fill="#000000" transform="matrix(7.745248349560504 0 0 -7.658821332599484 924.1071437976317 67.93797717916642)" d="M0 0C-18.652 3.238-37.029 4.758-54.734 4.758-72.439 4.758-90.816 3.238-109.468 0-109.747-7.523-110.063-19.15-109.53-29.017-108.343-51.013-103.529-68.087-94.381-82.75-85.259-97.369-71.136-109.939-54.734-117.404-38.332-109.939-24.208-97.369-15.087-82.75-5.938-68.087-1.125-51.013 .063-29.017 .595-19.15 .279-7.523 0 0"/>
<g fill="#FFFFFF" transform="matrix(7.367266262128858 0 0 7.367266262128858 -171.04603554655012 -215.2237213323142)">
<path transform="matrix(1,0,0,-1,65.6287,110.49631)" d="M0 0C-.353-.068-.542 .121-.593 .36-.732 1.008-1.093 3.224-1.207 3.876-1.269 4.235-1.16 4.431-.839 4.536 .73 5.047 3.372 5.946 5.498 6.701 6.045 6.895 6.215 7.114 6.523 7.608 7.413 9.038 9.598 12.923 10.63 14.936 10.777 15.222 10.765 15.562 10.6 15.838L10.13 16.627C9.969 16.898 9.59 17.183 9.286 17.262 7.125 17.819 4.265 18.524 2.914 18.851 2.614 18.924 2.301 18.912 2.007 18.817L1.76 18.738C3.831 18.027 5.594 17.391 7.83 16.534 8.022 16.46 8.231 16.236 8.291 16.038L8.496 15.358C8.579 15.082 8.553 14.786 8.422 14.529 7.473 12.656 5.827 10.173 4.514 8.577 4.317 8.337 4.064 8.154 3.774 8.044 2.504 7.565 .194 6.797-.813 6.536-1.013 6.485-1.112 6.508-1.278 6.625-2.01 7.141-3.522 8.568-3.522 8.568-3.522 8.568-3.649 7.016-3.657 6.321-3.658 6.243-3.643 6.168-3.613 6.097-3.355 5.489-2.9 4.326-2.71 3.735-2.661 3.581-2.621 3.447-2.582 3.291-2.328 2.27-1.627-.734-1.627-.734-1.525-1.189-1.27-1.348-.871-1.26-.358-1.147 1.286-.683 1.958-.457 2.062-.422 2.154-.367 2.234-.293 2.669 .108 3.397 .785 3.397 .785 3.397 .785 .928 .178 0 0"/>
<path transform="matrix(1,0,0,-1,69.3524,101.277408)" d="M0 0C.839 1.02 1.949 2.656 2.878 4.196L-3.995-1.512C-2.869-1.166-1.34-.646-.422-.299-.255-.237-.109-.133 0 0"/>
<path transform="matrix(1,0,0,-1,69.5138,78.28088)" d="M0 0-1.229-.106C-1.328-.114-1.405-.193-1.413-.292L-1.529-1.761C-1.535-1.838-1.466-1.898-1.391-1.882L-.149-1.604C0-1.571 .18-1.432 .241-1.291 .392-.941 .433-.532 .277-.167 .23-.057 .118 .01 0 0"/>
<path transform="matrix(1,0,0,-1,57.5399,96.6673)" d="M0 0 1.864-2.204 2.412 1.606C1.333 1.44 .341 .741 0 0"/>
<path transform="matrix(1,0,0,-1,118.3805,96.26721)" d="M0 0C-.76 1.361-4.549 6.525-9.289 11.506-9.462 11.687-9.669 11.831-9.897 11.932L-10.67 12.27C-10.67 12.27-9.292 6.198-8.674 2.878-8.595 2.455-8.39 2.067-8.086 1.765-5.968-.35-4.571-1.996-3.401-3.736-2.893-4.492-2.599-5.371-2.538-6.282-2.216-11.105-2.371-17.733-2.905-21.426-3.013-22.175-3.193-22.439-3.678-22.834-8.265-26.57-15.852-33.149-19.109-36.393-19.452-36.735-19.578-36.889-19.788-37.208-20.215-37.86-20.673-38.823-20.673-38.823-20.673-38.823-21.446-36.435-21.618-35.133-21.699-34.525-21.705-34.358-21.618-33.738-21.225-30.95-19.29-24.52-18.974-23.557-18.947-23.474-18.933-23.387-18.933-23.299V-22.695C-19.634-24.17-23.235-32.327-23.996-35.132-24.157-35.724-24.13-35.956-23.977-36.398-23.511-37.749-22.15-41.098-21.525-42.469-21.525-42.469-20.046-39.677-19.188-38.271-18.948-37.877-18.654-37.522-18.318-37.209-15.757-34.823-6.549-27.08-2.248-23.823-1.67-23.386-1.495-23.077-1.338-22.473 .402-15.78 1.133-8.085 .281-.822 .246-.523 .147-.262 0 0"/>
<path transform="matrix(1,0,0,-1,99.5219,76.69122)" d="M0 0C.176 .308 .242 .665 .182 1.015 .039 1.856-.178 2.846-.354 3.594-.387 3.734-.481 3.85-.61 3.912L-1.907 4.537C-2.077 4.62-2.269 4.646-2.455 4.613-5.586 4.057-8.88 3.4-11.37 2.83-11.574 2.784-11.748 2.653-11.852 2.471L-12.627 1.12C-12.687 1.016-12.628 .883-12.51 .861-11.858 .737-10.526 .497-10.07 .428-9.789 .386-9.695 .394-9.464 .491-7.886 1.15-5.306 2.159-3.387 2.86-3.235 2.916-3.071 2.918-2.917 2.868L-2.036 2.584C-1.908 2.542-1.8 2.454-1.733 2.336-1.492 1.908-1.24 1.439-1.09 1.129-.983 .909-1.043 .616-1.225 .349-1.876-.6-2.992-2.097-3.757-3.032-3.925-3.238-3.981-3.513-3.908-3.77-3.458-5.333-2.482-8.547-1.961-10.084-1.897-10.273-1.802-10.417-1.656-10.552L-.921-11.225C-.921-11.225-2.088-5.787-2.366-4.231-2.41-3.988-2.394-3.741-2.255-3.537-1.639-2.63-.536-.939 0 0"/>
<path transform="matrix(1,0,0,-1,127.4995,81.162479)" d="M0 0C-.09 .411-.223 .585-.562 .839-4.066 3.465-10.369 7.193-14.119 8.779-14.602 8.983-15.142 8.995-15.634 8.813-17.422 8.154-20.281 6.942-23.252 5.537-23.252 5.537-21.944 5.439-21.319 5.366-21 5.329-20.876 5.335-20.566 5.42-19.656 5.669-18.037 6.073-16.762 6.365-16.141 6.507-15.49 6.367-14.978 5.983-13.232 4.673-10.425 2.396-8.629 .876-8.316 .612-7.962 .399-7.583 .246-4.844-.86-3.642-1.411-3.028-1.728-2.598-1.951-2.289-2.35-2.167-2.822-1.456-5.589-.979-9.828-.732-12.887-.686-13.455-.761-14.022-.949-14.559-1.721-16.754-3.637-20.403-4.709-22.146-4.805-22.303-4.906-22.424-5.092-22.585-5.471-22.915-6.141-23.458-6.63-23.84-6.726-23.915-6.783-24.027-6.784-24.149-6.795-25.335-7.021-27.628-7.021-27.628-4.393-24.308-1.894-20.006 .327-15.435 .509-15.059 .579-14.847 .617-14.495 1.135-9.592 .823-3.767 0 0"/>
<path transform="matrix(1,0,0,-1,92.593,140.5271)" d="M0 0C-.618 1.399-3.837 9.068-4.707 12.004-5.014 13.042-5.053 13.323-4.935 14.493-4.203 21.705-1.63 33.181-1.225 34.754-1.14 35.087-1.152 35.177-1.211 35.515-1.315 36.113-1.66 38.171-1.66 38.171-2.824 35.457-6.967 24.245-8.496 17.645-8.784 16.402-8.734 16.068-8.475 15.391-6.274 9.648-.669-.725 .362-2.292L.131-.484C.11-.317 .068-.154 0 0"/>
<path transform="matrix(1,0,0,-1,87.6,140.97449)" d="M0 0C0 0-1.221 .798-1.597 1.049-1.986 1.309-2.121 1.423-2.305 1.59-4.853 3.915-13.795 14.982-16.474 19.793-16.924 20.599-17.055 20.98-17.011 21.793-16.961 22.72-16.783 24.511-16.601 25.562-16.488 26.216-16.34 26.648-15.788 27.153-14.268 28.542-11.813 31.027-10.53 32.341-9.97 32.916-9.688 33.283-9.389 33.846-8.214 36.066-4.618 43.931-3.413 47.163-3.2 47.735-3.187 47.896-3.268 48.492-3.499 50.186-4.841 54.56-4.841 54.56L-4.955 53.096C-4.963 52.995-4.959 52.895-4.942 52.795-4.835 52.162-4.427 49.654-4.44 48.366-4.445 47.922-4.467 47.759-4.704 47.288-6.509 43.712-13.555 34.173-18.008 29.011-18.509 28.43-18.653 28.043-18.791 27.386-19.02 26.295-19.282 23.808-19.45 21.829-19.54 20.767-19.47 20.403-18.799 19.28-16.112 14.783-6.969 4.011-3.987 1.515-3.79 1.351-3.579 1.208-3.354 1.086-2.305 .516 .563-.914 .563-.914L.12-.131C.09-.079 .049-.035 0 0"/>
<path transform="matrix(1,0,0,-1,74.3186,76.80621)" d="M0 0 5.681 1.79C6.015 1.892 6.297 2.122 6.466 2.431L9.495 7.684C9.566 7.809 9.476 7.965 9.333 7.963L6.744 7.927C6.521 7.924 6.235 7.879 6.022 7.807 3.772 7.05 .56 5.613-1.248 4.656-1.452 4.548-1.642 4.374-1.787 4.194L-4.523 .802C-4.612 .691-4.728 .604-4.859 .547L-6.631-.21C-6.716-.246-6.784-.313-6.823-.397L-6.906-.577C-6.906-.577-3.164-.458-1.904-.362-1.216-.309-.66-.202 0 0"/>
<path transform="matrix(1,0,0,-1,84.7257,64.42108)" d="M0 0C7.153 .542 15.373 .389 17.366 .341 17.663 .333 17.958 .282 18.241 .189L19.701-.303C16.111-.493 7.438-1.272 3.928-1.88L5.165-2.075C5.253-2.089 5.34-2.093 5.429-2.087 8.025-1.926 13.108-1.761 15.34-1.729 15.884-1.721 16.168-1.77 16.723-1.984 18.022-2.484 20.63-3.675 21.706-4.225 22.269-4.513 22.662-4.609 23.238-4.633 24.405-4.681 26.189-4.806 27.51-4.947 27.868-4.985 28.216-5.089 28.537-5.252 31.252-6.628 34.489-8.582 36.707-10.083 36.837-10.171 36.981-10.231 37.135-10.261L38.231-10.479C38.231-10.479 34.715-6.858 33.329-5.627 33.129-5.449 32.912-5.293 32.68-5.16 27.442-2.143 22.733 .318 20.078 1.442 19.653 1.622 19.203 1.732 18.743 1.767 10.641 2.385 2.157 2.234-4.111 1.679-4.559 1.639-4.916 1.421-5.128 1.11-5.372 .752-5.773 .106-6.138-.49-6.316-.782-6.535-1.044-6.79-1.269-7.921-2.266-9.819-3.875-11.022-4.788-11.125-4.867-11.177-4.907-11.26-4.964-11.76-5.311-13.424-6.415-13.726-6.614-13.84-6.689-13.867-6.71-13.951-6.819-14.048-6.944-14.546-7.59-14.546-7.59-9.556-4.764-3.2-1.22-1.023-.256-.698-.112-.354-.027 0 0"/>
<path transform="matrix(1,0,0,-1,61.4316,80.36328)" d="M0 0C-.061-.084-.139-.155-.223-.215-4.664-3.407-7.151-5.439-8.137-6.274-8.538-6.669-8.921-7.054-9.271-7.42-9.584-7.747-9.658-7.87-9.678-8.129-9.695-8.348-9.711-8.641-9.71-8.81-9.71-8.905-9.686-8.979-9.633-9.058-9.57-9.152-9.22-9.554-9.137-9.638-9.098-9.677-9.04-9.69-8.996-9.658-8.339-9.193-7.416-8.502-6.58-7.86-6.513-7.809-6.39-7.683-6.344-7.603-6.203-7.359-6.017-7.005-5.912-6.781-5.842-6.633-5.796-6.586-5.626-6.478-5.458-6.371-4.953-6.051-4.953-6.051-4.953-6.051-5.331-7.616-5.602-8.158-5.695-8.344-5.783-8.474-5.854-8.548-6.508-9.235-7.694-10.57-8.286-11.302-8.484-11.547-8.417-11.853-8.257-12.093-7.712-12.907-6.58-14.311-5.89-15.044-5.678-15.27-5.581-15.364-5.387-15.475-5.103-15.638-4.902-15.704-4.902-15.704-4.902-15.704-4.334-12.962-4.093-12.109-4.011-11.82-3.832-11.59-3.472-11.5-.559-10.772 5.728-9.719 5.728-9.719 5.067-8.922 2.855-6.63 2.187-6.051 1.986-5.877 1.798-5.79 1.534-5.76 .722-5.666-1.942-5.471-1.942-5.471-1.942-5.471-1.712-5.214-1.54-5.037-1.381-4.874-1.289-4.812-1.074-4.737 2.19-3.599 6.545-1.94 9.091-.87 9.644-.638 9.908-.474 10.349-.015 10.54 .185 10.929 .622 11.149 .889 11.194 .943 11.219 .983 11.231 1.053 11.245 1.132 11.264 1.277 11.264 1.277 11.264 1.277 10.177 .455 9.748 .155 9.353-.123 9.099-.25 8.633-.372 7.735-.607 6.052-1.01 5.05-1.234 4.777-1.295 4.645-1.298 4.398-1.207 4.237-1.148 3.931-1.026 3.749-.94 3.551-.848 3.461-.835 3.248-.883 2.359-1.085-.065-1.686-.065-1.686-.065-1.686 1.051-.684 1.135-.619 1.24-.537 1.29-.509 1.47-.437 2.31-.099 3.347 .278 4.223 .636 4.423 .719 4.508 .817 4.525 1.015 4.581 1.693 4.771 2.917 4.887 3.56 4.92 3.743 4.978 3.844 5.123 3.959 5.633 4.367 7.52 5.822 7.969 6.156 7.997 6.183 8.025 6.211 8.054 6.238L8.562 6.87C7.22 6.084 4.824 4.652 3.588 3.868 3.056 3.53 2.797 3.35 2.273 2.935 2.215 2.889 2.164 2.835 2.118 2.776 1.791 2.365 .467 .635 0 0"/>
<path transform="matrix(1,0,0,-1,59.4363,55.4115)" d="M0 0V7.711C3.253 8.002 6.509 8.247 9.768 8.448V7.187C6.927 7.012 4.088 6.803 1.251 6.56V4.644C3.762 4.859 6.274 5.048 8.788 5.209V3.948C6.274 3.787 3.762 3.598 1.251 3.383V1.37C4.088 1.613 6.927 1.822 9.768 1.997V.736C6.509 .536 3.253 .29 0 0"/>
<path transform="matrix(1,0,0,-1,46.1398,56.849977)" d="M0 0V7.711C2.574 8.039 5.151 8.338 7.731 8.609 8.177 8.656 8.541 8.641 8.842 8.563 9.169 8.479 9.432 8.336 9.623 8.138 9.814 7.941 9.946 7.695 10.017 7.408 10.075 7.168 10.104 6.904 10.104 6.626V5.725C10.104 5.446 10.075 5.178 10.016 4.93 9.945 4.631 9.811 4.362 9.619 4.13 9.426 3.898 9.161 3.707 8.834 3.561 8.535 3.429 8.174 3.342 7.731 3.295 5.568 3.068 3.407 2.821 1.247 2.554V.156C.831 .105 .416 .053 0 0M1.247 3.815C3.539 4.098 5.833 4.359 8.128 4.598 8.522 4.639 8.842 4.994 8.842 5.391V6.743C8.842 7.141 8.522 7.431 8.128 7.39 5.833 7.151 3.539 6.89 1.247 6.607Z"/>
<path transform="matrix(1,0,0,-1,115.4437,54.838197)" d="M0 0C-.484 .033-.875 .09-1.198 .176-1.566 .274-1.87 .422-2.1 .616-2.354 .831-2.531 1.101-2.626 1.419-2.704 1.679-2.742 1.973-2.742 2.317-2.742 3.462-2.742 4.607-2.742 5.753-2.742 6.096-2.704 6.386-2.626 6.637-2.531 6.944-2.354 7.192-2.099 7.374-1.87 7.54-1.566 7.649-1.198 7.699-.877 7.742-.484 7.748 0 7.715 1.696 7.598 3.391 7.47 5.086 7.329 5.57 7.289 5.961 7.224 6.283 7.132 6.651 7.026 6.953 6.87 7.183 6.67 7.437 6.449 7.614 6.174 7.709 5.852 7.786 5.59 7.824 5.296 7.824 4.952 7.824 3.806 7.824 2.661 7.824 1.516 7.824 1.172 7.787 .884 7.709 .636 7.615 .332 7.437 .089 7.182-.088 6.953-.247 6.651-.349 6.283-.391 5.96-.428 5.568-.426 5.086-.386 3.391-.245 1.696-.116 0 0M-.761 6.499C-1.156 6.525-1.476 6.223-1.476 5.826-1.476 4.577-1.476 3.329-1.476 2.081-1.476 1.684-1.155 1.34-.761 1.314-.551 1.3-.341 1.286-.131 1.272-.086 1.267-.038 1.263 .013 1.26 1.7 1.144 3.387 1.016 5.073 .876 5.105 .874 5.138 .872 5.17 .87 5.395 .851 5.621 .832 5.846 .813 6.241 .779 6.561 1.074 6.561 1.471 6.561 2.72 6.561 3.968 6.561 5.216 6.561 5.613 6.24 5.964 5.846 5.998 3.645 6.185 1.442 6.352-.761 6.499"/>
<path transform="matrix(1,0,0,-1,130.2792,56.16858)" d="M0 0V6.451C-1.493 6.616-2.988 6.772-4.482 6.919V8.18C-1.076 7.846 2.327 7.462 5.725 7.03V5.769C4.234 5.959 2.741 6.139 1.249 6.31V-.141C.832-.093 .416-.046 0 0"/>
<path transform="matrix(1,0,0,-1,99.6617,54.10663)" d="M0 0V7.711C3.262 7.633 6.523 7.509 9.783 7.341 9.783 6.92 9.783 6.5 9.783 6.08 6.941 6.227 4.098 6.339 1.254 6.418V4.502C3.771 4.433 6.288 4.336 8.803 4.213 8.803 3.793 8.803 3.373 8.803 2.952 6.288 3.075 3.771 3.172 1.254 3.241V1.228C4.098 1.15 6.941 1.037 9.783 .89 9.783 .47 9.783 .049 9.783-.371 6.523-.202 3.262-.079 0 0"/>
<path transform="matrix(1,0,0,-1,88.826,54.01001)" d="M0 0C-.484-.003-.877 .025-1.201 .086-1.568 .156-1.872 .282-2.103 .459-2.357 .654-2.535 .911-2.63 1.222-2.708 1.477-2.746 1.768-2.746 2.112-2.746 3.248-2.746 4.384-2.746 5.52-2.746 6.257-2.555 6.813-2.179 7.172-1.804 7.53-1.189 7.703-.242 7.71 2.174 7.727 4.59 7.719 7.006 7.687V6.426C4.417 6.46 1.828 6.467-.762 6.445-1.157 6.441-1.478 6.115-1.478 5.718-1.478 4.521-1.479 3.324-1.479 2.127-1.479 2.075-1.478 2.022-1.478 1.97-1.478 1.573-1.157 1.254-.762 1.257-.553 1.259-.345 1.26-.137 1.262-.09 1.261-.041 1.26 .013 1.261 2.111 1.274 4.21 1.269 6.309 1.245V3.258C4.948 3.273 3.588 3.281 2.228 3.281 2.231 3.701 2.234 4.122 2.237 4.542 4.013 4.542 5.788 4.529 7.563 4.502V-.033C5.042 .005 2.521 .016 0 0"/>
<path transform="matrix(1,0,0,-1,75.2178,54.346376)" d="M0 0C-.484-.022-.877-.009-1.2 .04-1.568 .097-1.872 .21-2.102 .379-2.356 .564-2.533 .813-2.628 1.121-2.706 1.374-2.744 1.663-2.744 2.007V7.562C-2.326 7.584-1.908 7.605-1.49 7.626-1.491 5.721-1.491 3.816-1.491 1.911-1.491 1.514-1.17 1.207-.775 1.225 1.356 1.325 3.487 1.405 5.619 1.467 6.014 1.478 6.335 1.809 6.335 2.207 6.335 4.111 6.335 6.016 6.335 7.921 6.753 7.932 7.171 7.943 7.59 7.953V2.397C7.59 2.054 7.552 1.761 7.474 1.503 7.379 1.188 7.201 .925 6.947 .72 6.716 .535 6.413 .398 6.044 .314 5.721 .24 5.329 .198 4.844 .183 3.229 .133 1.614 .072 0 0"/>
<path transform="matrix(1,0,0,-1,145.8187,40.7583)" d="M0 0C-18.652 3.238-37.029 4.758-54.734 4.758-72.439 4.758-90.816 3.238-109.468 0-109.747-7.523-110.063-19.15-109.53-29.017-108.343-51.013-103.529-68.087-94.381-82.75-85.259-97.369-71.136-109.939-54.734-117.404-38.332-109.939-24.208-97.369-15.087-82.75-5.938-68.087-1.125-51.013 .063-29.017 .595-19.15 .279-7.523 0 0M-2.038-28.902C-3.205-50.525-7.917-67.278-16.868-81.623-25.818-95.967-39.239-107.815-54.734-115.073-70.229-107.815-83.65-95.967-92.6-81.623-101.551-67.278-106.263-50.525-107.43-28.902-107.811-21.838-107.811-12.96-107.427-1.8-89.907 1.146-72.187 2.639-54.734 2.639-37.28 2.639-19.561 1.146-2.041-1.8-1.657-12.96-1.657-21.838-2.038-28.902"/>
</g>
</g>
</svg>
