<svg xmlns="http://www.w3.org/2000/svg" width="1000" height="1000" viewBox="0 0 1000 1000" role="img" aria-labelledby="icon-title icon-desc"><title id="icon-title">Volkswagen</title><desc id="icon-desc">FrogPilot car icon: the flat Volkswagen roundel (2019).</desc><path fill="#001E50" transform="matrix(8.077689421816942 0 0 -8.077689421816942 500 908.52106481897)" d="M0 0C-27.699 0-50.418 22.875-50.418 50.574-50.418 56.799-49.328 62.712-47.228 68.236L-17.74 8.87C-17.351 8.087-16.884 7.47-15.95 7.47-15.016 7.47-14.502 8.102-14.161 8.87L-.623 39.292C-.467 39.603-.311 39.915 0 39.915 .311 39.915 .467 39.603 .622 39.292L14.161 8.87C14.502 8.103 15.017 7.47 15.95 7.47 16.884 7.47 17.352 8.09 17.74 8.87L47.228 68.236C49.329 62.712 50.418 56.799 50.418 50.574 50.418 22.875 27.699 0 0 0M0 62.011C-.311 62.011-.467 62.323-.623 62.634L-16.495 98.269C-11.359 100.136-5.758 101.148 0 101.148 5.758 101.148 11.359 100.136 16.495 98.269L.622 62.634C.467 62.323 .311 62.011 0 62.011M-16.106 25.443C-16.417 25.443-16.573 25.754-16.728 26.065L-42.404 77.806C-37.813 84.809-31.667 90.722-24.275 94.846L-5.836 53.764C-5.524 52.986-5.057 52.83-4.435 52.83H4.435C5.057 52.83 5.524 52.986 5.836 53.764L24.276 94.846C31.667 90.722 37.815 84.809 42.405 77.806L16.729 26.065C16.573 25.754 16.417 25.443 16.106 25.443 15.794 25.443 15.639 25.754 15.483 26.065L5.836 48.162C5.524 48.94 5.057 49.096 4.435 49.096H-4.435C-5.057 49.096-5.524 48.94-5.836 48.162L-15.483 26.065C-15.639 25.754-15.795 25.443-16.106 25.443M0-5.135C30.811-5.135 55.709 19.763 55.709 50.574 55.709 81.385 30.811 106.283 0 106.283-30.811 106.283-55.709 81.385-55.709 50.574-55.709 19.763-30.811-5.135 0-5.135"/></svg>
