<svg xmlns="http://www.w3.org/2000/svg" width="1000" height="1000" viewBox="0 0 1000 1000" role="img" aria-labelledby="icon-title icon-desc">
  <title id="icon-title">Red Diff</title>
  <desc id="icon-desc">FrogPilot icon: the words "RED DIFF" in bold slanted red lettering above two underline swooshes.</desc>
  <path transform="matrix(0.9165 0 0 0.9165 51.37 43.58)" fill="#D12536" fill-rule="evenodd" d="M637.4 351.13L667.1 43.85A26 26 0 0 1 690.01 20.52L749.91 13.63C786.59 9.4 824.97 2 861.43 11.76C968.97 40.54 963.5 179.49 918.67 257.72C901.88 287.02 877.96 311.8 849.54 330C805.75 358.03 762.33 362.41 712.06 367.55L659.34 372.95A20 20 0 0 1 637.4 351.13ZM468.31 116.94L463.41 162.69A6 6 0 0 0 470.1 169.28L556.37 158.73A18 18 0 0 1 576.48 178.24L573.17 214.33A28 28 0 0 1 547.87 239.66L460.3 247.77A6 6 0 0 0 454.88 253.14L450.03 301.03A6 6 0 0 0 456.58 307.61L555.31 298.03A18 18 0 0 1 574.92 318.04L570.87 352.63A28 28 0 0 1 545.97 377.22L382.65 394.26A20 20 0 0 1 360.68 372.35L392.14 63.22A26 26 0 0 1 415.02 40.03L577.27 21.27A18 18 0 0 1 597.25 40.91L593.67 77.39A28 28 0 0 1 568.48 102.53L473.71 111.61A6 6 0 0 0 468.31 116.94ZM254.77 272.01L298.67 359.78A28 28 0 0 1 276.14 400.19L244.9 403.02A28 28 0 0 1 216.92 386.79L170.6 285.63A6 6 0 0 0 164.55 282.15L141.62 284.47A6 6 0 0 0 136.26 289.81L125.97 387.81A28 28 0 0 1 100.64 412.78L64.03 416.09A20 20 0 0 1 42.34 394.03L76.17 79.19A26 26 0 0 1 99.37 56.11L199.94 45.76C222.53 43.44 249.78 40.11 271.82 46.92C346.11 69.84 349.61 169.39 307.62 223.2C291.54 243.81 274.33 253.58 257 264.21A6 6 0 0 0 254.77 272.01ZM731.11 291.24L742 290.18C765.7 287.87 789.93 284.12 810.66 271.65C868.8 236.69 891.91 117.79 837.04 87.79C814.99 75.73 783.88 79.97 760.12 84.12L748.23 86.19A6 6 0 0 0 743.3 91.52L724.56 284.69A6 6 0 0 0 731.11 291.24ZM153.46 127.33L145.4 205.17A6 6 0 0 0 151.89 211.76L164.95 210.62C183.51 208.98 205.66 208.21 222.69 200C252.48 185.65 270.02 133.91 230 120.35C215.06 115.28 185.71 117.84 169.89 120.27L158.52 122.01A6 6 0 0 0 153.46 127.33ZM826.95 469.98L822.4 515.77A6 6 0 0 0 829.08 522.32L900.24 513.9A18 18 0 0 1 920.25 533.78L917.2 561A28 28 0 0 1 891.23 585.82L820.85 590.49A6 6 0 0 0 815.27 595.91L807.71 675.98A28 28 0 0 1 782.36 701.23L754.73 703.73A20 20 0 0 1 733.02 681.9L757.81 423.49A26 26 0 0 1 781.56 400.06L922.48 388.49A18 18 0 0 1 941.86 408.17L939.51 432.39A28 28 0 0 1 914.04 457.57L832.41 464.59A6 6 0 0 0 826.95 469.98ZM579.85 486.43L575.76 531.91A6 6 0 0 0 582.41 538.41L655.45 530.21A18 18 0 0 1 675.37 549.82L672.77 576.93A28 28 0 0 1 646.71 602.2L574.43 606.88A6 6 0 0 0 568.84 612.37L562.21 692.88A28 28 0 0 1 536.82 718.47L509.26 720.96A20 20 0 0 1 487.54 699.25L510.66 441.66A26 26 0 0 1 534.41 418.07L678.78 406.09A18 18 0 0 1 698.18 425.79L695.84 449.75A28 28 0 0 1 669.96 474.95L585.4 480.99A6 6 0 0 0 579.85 486.43ZM344.21 705.82L370.18 448.53A26 26 0 0 1 393.71 425.24L421.73 422.71A18 18 0 0 1 441.27 442.32L417.17 700.13A28 28 0 0 1 391.82 725.41L365.91 727.75A20 20 0 0 1 344.21 705.82ZM31 730.85L58.37 471.96A26 26 0 0 1 82.48 448.75L159.84 443.55C250.09 437.48 312.87 483.72 302.95 579.66C296.25 644.51 261.62 699.18 201.57 727.31C165.75 744.09 126.58 746.18 87.93 749.68L52.69 752.87A20 20 0 0 1 31 730.85ZM124.43 515.2L107.15 675.52A6 6 0 0 0 113.67 682.14L134.92 680.18C155.1 678.32 176.5 672.69 192.96 660.49C230.79 632.42 253.47 545.12 205.24 516.39C186.6 505.29 160.84 506.37 139.99 508.72L129.72 509.88A6 6 0 0 0 124.43 515.2ZM62.42 851.37C328.85 768.06 609.5 734.48 888.14 738.45A37.5 37.5 0 0 1 925.11 776.48A37.5 37.5 0 0 1 887.08 813.44C616.44 809.59 343.59 842.04 84.8 922.95A37.5 37.5 0 0 1 37.82 898.35A37.5 37.5 0 0 1 62.42 851.37ZM291.54 914.85C335.74 903.27 380.45 893.69 425.42 885.69C473.28 877.17 521.46 870.44 569.8 865.34C608.6 861.25 647.51 858.22 686.48 856.31C721.96 854.57 757.5 853.77 793.02 854.13A37.5 37.5 0 0 1 830.14 892A37.5 37.5 0 0 1 792.27 929.12C758.1 928.78 723.91 929.56 689.78 931.24C652.05 933.09 614.37 936.04 576.8 940.02C530.26 944.95 483.89 951.44 437.82 959.66C395.07 967.28 352.57 976.39 310.56 987.4A37.5 37.5 0 0 1 264.78 960.64A37.5 37.5 0 0 1 291.54 914.85Z"/>
</svg>
